# xmcd
#
# Track frame offsets:
#	150
#	13135
#	27260
#	42569
#	57288
#	68957
#	84781
#	100819
#	118484
#	132140
#	146721
#	162037
#	178807
#	194998
#	211815
#	225782
#	238821
#	254783
#	270467
#	281727
#	295534
#	309618
#
# Disc length: 4302 seconds
#
# Revision: 1
# Processed by: cddbd v1.4PL0 Copyright (c) Steve Scherf et al.
# Submitted via: audiograbber 1.81.02
#
DISCID=4c10cc16
DTITLE=Vaya Con Dios - 2 IN 1 - Night Owls and Time Flies
DYEAR=1900
DGENRE=Blues
TTITLE0=Nah Neh Nah
TTITLE1=Far Gone Now
TTITLE2=Sunny Days
TTITLE3=Sally
TTITLE4=Something's Got a Hold on Me
TTITLE5=I Don't Want to Know
TTITLE6=What's a Woman?
TTITLE7=Night Owls
TTITLE8=Pack Your Memories
TTITLE9=With You
TTITLE10=Traveling Light
TTITLE11=Quand Elle Rit Aux Eclats
TTITLE12=Time Flies
TTITLE13=Forever Blue
TTITLE14=Farewell Song
TTITLE15=So Long Ago
TTITLE16=Still a Man
TTITLE17=Heading For a Fall
TTITLE18=Mothers and Daughters
TTITLE19=Listen
TTITLE20=Bold and Untrue
TTITLE21=Muddy Waters
EXTD=
EXTT0=
EXTT1=
EXTT2=
EXTT3=
EXTT4=
EXTT5=
EXTT6=
EXTT7=
EXTT8=
EXTT9=
EXTT10=
EXTT11=
EXTT12=
EXTT13=
EXTT14=
EXTT15=
EXTT16=
EXTT17=
EXTT18=
EXTT19=
EXTT20=
EXTT21=
PLAYORDER=
